{"title":"The Outsider 2013 DVDrip English Klam","uid":9534571,"size":1345688829,"categoryP":"video","categoryS":"movies","magnet":"?xt=urn:btih:24e0199b38e5dee0de9264c6a08b9dc44347b616&amp;dn=The+Outsider+2013+DVDrip+English+Klam&amp;tr=udp%3A%2F%2Ftracker.openbittorrent.com%3A80&amp;tr=udp%3A%2F%2Fopen.demonii.com%3A1337&amp;tr=udp%3A%2F%2Ftracker.coppersurfer.tk%3A6969&amp;tr=udp%3A%2F%2Fexodus.desync.com%3A6969","seeders":1,"leechers":0,"uploader":"Klambake","files":-1,"time":1390907754,"description":"With: Jason Patric, James Caan and Craig Fairbrass\n\nLex walker, een Britse militaire contractant, krijgt te horen dat zijn dochter is overleden. Wanneer hij aankomt in Los Angeles ontdekt hij dat het lichaam niet van haar is en begint hij een onderzoek. Hij gaat achter de internet fraudeur aan die zijn dochter heeft ontvoerd en zet heel Los Angeles op zijn kop om haar te redden.\n\nRevolves around a British military contractor Lex Walker who is told his daughter has died. When he arrives in Los Angeles and discovers the body is not hers, he begins an investigation. \n &lt;a href=&quot;\nhttp://www.imdb.com/title/tt2198241&quot; rel=&quot;nofollow&quot; target=&quot;_NEW&quot;&gt;\nhttp://www.imdb.com/title/tt2198241&lt;/a&gt;\t\n\n--------------------- Dutch Friends 4ever ---------------------\n---------------------------------------------------------------\n- Bezoek ook eens mijn vrienden op: &lt;a href=&quot; http://www.Film-Test.nl&quot; rel=&quot;nofollow&quot; target=&quot;_NEW&quot;&gt; http://www.Film-Test.nl&lt;/a&gt; --\n----- voor mijn Nederlandse Sync. ondertitels ---- en meer ----\n------- http://www.Film-Test.nl ---- Over Films en meer -------\n---------------------------------------------------------------\n\nGeneral:\n\nComplete name                    : The OutsiderThe Outsider.avi\nFormat                           : AVI\nFormat/Info                      : Audio Video Interleave\nFile size                        : 1.25 GiB\nDuration                         : 1h 30mn\nOverall bit rate                 : 1 990 Kbps\n\nVideo:\n\nFormat                           : MPEG-4 Visual\nFormat profile                   : Simple@L3\nFormat settings, BVOP            : No\nFormat settings, QPel            : No\nFormat settings, GMC             : No warppoints\nFormat settings, Matrix          : Default (H.263)\nCodec ID                         : XVID\nCodec ID/Hint                    : XviD\nDuration                         : 1h 30mn\nBit rate                         : 1 531 Kbps\nWidth                            : 704 pixels\nHeight                           : 396 pixels\nDisplay aspect ratio             : 16:9\nFrame rate                       : 25.000 fps\nColor space                      : YUV\nChroma subsampling               : 4:2:0\nBit depth                        : 8 bits\nScan type                        : Progressive\nCompression mode                 : Lossy\nBits/(Pixel*Frame)               : 0.220\nStream size                      : 987 MiB (77%)\nWriting library                  : XviD 1.1.2 (UTC 2006-11-01)\n\nAudio:\n\nFormat                           : AC-3\nFormat/Info                      : Audio Coding 3\nMode extension                   : CM (complete main)\nCodec ID                         : 2000\nDuration                         : 1h 30mn\nBit rate mode                    : Constant\nBit rate                         : 448 Kbps\nChannel(s)                       : 6 channels\nChannel positions                : Front: L C R, Side: L R, LFE\nSampling rate                    : 48.0 KHz\nBit depth                        : 16 bits\nCompression mode                 : Lossy\nStream size                      : 289 MiB (23%)\nAlignment                        : Aligned on interleaves\nInterleave, duration             : 32 ms (0.80 video frame)\nInterleave, preload duration     : 512 ms","torrent":{"xt":"urn:btih:24e0199b38e5dee0de9264c6a08b9dc44347b616","amp;dn":"The+Outsider+2013+DVDrip+English+Klam","amp;tr":["udp%3A%2F%2Ftracker.openbittorrent.com%3A80","udp%3A%2F%2Fopen.demonii.com%3A1337","udp%3A%2F%2Ftracker.coppersurfer.tk%3A6969","udp%3A%2F%2Fexodus.desync.com%3A6969"],"infoHash":"24e0199b38e5dee0de9264c6a08b9dc44347b616","infoHashBuffer":{"type":"Buffer","data":[36,224,25,155,56,229,222,224,222,146,100,198,160,139,157,196,67,71,182,22]},"announce":[],"urlList":[]}}